<?xml version="1.0" encoding="UTF-8"?>
<!DOCTYPE svg PUBLIC "-//W3C//DTD SVG 1.1//EN" "http://www.w3.org/Graphics/SVG/1.1/DTD/svg11.dtd">
<!-- Creator: CorelDRAW -->
<svg xmlns="http://www.w3.org/2000/svg" xml:space="preserve" width="344px" height="155px" style="shape-rendering:geometricPrecision; text-rendering:geometricPrecision; image-rendering:optimizeQuality; fill-rule:evenodd; clip-rule:evenodd"
viewBox="0 0 344 155.042"
 xmlns:xlink="http://www.w3.org/1999/xlink">
 <defs>
  <style type="text/css">
   <![CDATA[
    .fil3 {fill:#969594;fill-rule:nonzero}
    .fil5 {fill:#C2C1C1;fill-rule:nonzero}
    .fil0 {fill:#006CA6;fill-rule:nonzero}
    .fil1 {fill:#3AB3C3;fill-rule:nonzero}
    .fil2 {fill:#788891;fill-rule:nonzero}
    .fil4 {fill:#B8B7B7;fill-rule:nonzero}
   ]]>
  </style>
 </defs>
 <g id="__x0023_Layer_x0020_1">
  <metadata id="CorelCorpID_0Corel-Layer"/>
  <g id="_109329224">
   <path id="_109329248" class="fil0" d="M171.622 0l4.27294 0c4.60284,1.02731 8.67279,4.80638 9.00213,9.67071 0.785039,6.35695 -5.17445,12.1807 -11.4537,11.7154 -6.00756,-0.00961385 -11.3759,-5.67821 -10.6299,-11.7347 0.319729,-4.80638 4.30233,-8.5176 8.80848,-9.65148z"/>
   <path id="_109329920" class="fil0" d="M136.011 63.5577c6.42452,-2.75203 14.6611,1.97688 15.1165,9.04086 0.852886,6.7926 -5.9496,12.7812 -12.568,11.6182 -6.21137,-0.619956 -11.0274,-7.25763 -9.20567,-13.3525 0.8625,-3.32392 3.46895,-6.08557 6.65718,-7.30653z"/>
  </g>
  <g id="_109329488">
   <path id="_110416168" class="fil1" d="M170.944 31.5513c6.49209,-1.95738 14.0214,3.22668 13.9923,10.1165 0.387575,6.89917 -6.90906,12.4711 -13.4981,10.7656 -6.06606,-1.06576 -10.3006,-7.9556 -8.13002,-13.8181 1.1435,-3.44972 4.1378,-6.15314 7.63587,-7.06398z"/>
   <path id="_109701432" class="fil1" d="M202.882 31.5125c6.45364,-1.86069 13.8764,3.31403 13.8569,10.1454 0.329343,6.04684 -5.31975,11.3666 -11.2987,11.0372 -5.83341,0.0678463 -11.1823,-5.15522 -10.8626,-11.0565 0.0291162,-4.76765 3.73072,-9.03125 8.30444,-10.1261z"/>
  </g>
  <g id="_109701504">
   <path id="_109701528" class="fil2" d="M169.829 63.4511c6.17237,-2.55811 13.9439,1.58931 15.0292,8.22698 1.34704,6.27894 -4.0988,12.6065 -10.4071,12.723 -6.00756,0.494152 -11.8314,-4.66107 -11.783,-10.7461 -0.11619,-4.49626 3.01353,-8.65329 7.16094,-10.2039z"/>
   <path id="_109701624" class="fil2" d="M45.4274 117.338l0.872113 0.0969625c2.72292,0.377687 5.49445,0.397189 8.21737,0.0288415l0.852611 -0.0966879c-3.23657,1.03665 -6.73464,1.25969 -9.94209,-0.0291162z"/>
  </g>
  <g id="_109701696">
   <path id="_109329728" class="fil3" d="M29.3612 107.376c4.19576,0 8.40113,0 12.5972,0.00988853 0,0.55211 0.00961385,1.63765 0.00961385,2.18976 -3.38188,-0.00961385 -6.76375,-0.00961385 -10.1456,0.0195024 0,1.91865 0,3.8373 0,5.75595 2.95557,0.00961385 5.90126,0.0195024 8.84721,0.0483439 -0.0291162,0.54277 -0.0873487,1.62804 -0.116465,2.18042 -2.90695,-0.0195024 -5.82352,-0.0195024 -8.73075,0 0.00961385,2.82949 0.00961385,5.64937 -0.00961385,8.47887 -0.610617,0 -1.84119,-0.00961385 -2.45153,-0.00961385 -0.0195024,-6.23087 -0.00988853,-12.4519 0,-18.6731z"/>
   <path id="_109701792" class="fil3" d="M0 107.357c0.639458,0.00961385 1.91865,0.0291162 2.55811,0.0483439 0.00988853,5.47495 0,10.9595 0.00988853,16.4345 3.06187,0.00988853 6.12402,0.00988853 9.18617,0.00988853 0,0.55211 0,1.65688 0,2.20926 -3.91476,-0.00961385 -7.83941,-0.00961385 -11.7542,-0.0195024l0 -18.6825z"/>
   <path id="_109701864" class="fil3" d="M59.3619 107.367c0.581226,0 1.72472,0.00961385 2.29634,0.0195024 -0.00961385,6.22098 0,12.4324 -0.00961385,18.6533 -0.571612,0.00988853 -1.72472,0.00988853 -2.29661,0.00988853 -0.00961385,-6.23087 -0.0291162,-12.4617 0.00988853,-18.6827z"/>
   <path id="_109701936" class="fil3" d="M65.1759 107.376c0.610617,0.00988853 1.8508,0.0291162 2.47103,0.0387301 -0.0582325,0.658961 -0.15492,1.95765 -0.203539,2.61634 -0.552384,-0.00961385 -1.64726,-0.00961385 -2.19965,-0.0192277 -0.0192277,-0.658961 -0.0483439,-1.97688 -0.0678463,-2.63584z"/>
   <path id="_109702008" class="fil3" d="M107.522 107.367c1.24046,0 2.47103,0 3.7115,0 1.79257,5.30053 3.56591,10.6107 5.31975,15.9307 1.82169,-5.31042 3.64337,-10.6107 5.46534,-15.9211 0.823495,0 2.48065,0 3.30414,0 0.0678463,6.22126 0.0291162,12.4422 0.0390048,18.6731 -0.601003,0 -1.80246,0 -2.40319,-0.00988853 0.0192277,-5.13572 0.0483439,-10.2714 -0.0195024,-15.4072 -2.00572,5.09699 -3.33326,10.4654 -5.62987,15.4459 -0.455422,-0.00961385 -1.37615,-0.0483439 -1.84119,-0.0579578 -2.19965,-5.1261 -3.60464,-10.5527 -5.55241,-15.7854 -0.0195024,5.27141 0,10.5431 -0.00988853,15.8241 -0.600728,-0.00961385 -1.79257,-0.00961385 -2.3933,-0.00961385 0.0192277,-6.23087 0.00961385,-12.4519 0.00961385,-18.6827z"/>
   <g>
    <path id="_109702104" class="fil3" d="M205.169 109.644c1.444,-3.48845 7.4131,-3.48845 8.48875,0.271385 0.900955,2.59711 -1.59892,4.37018 -3.19784,5.94987 0.988304,1.24019 1.96699,2.48065 2.93607,3.74034 0.649347,-1.64726 1.93815,-2.35484 3.65326,-2.19003 -0.532882,1.54069 -1.124,3.07176 -1.71511,4.60284 0.910844,0.881727 1.8313,1.77334 2.75203,2.65507 -0.348845,0.474924 -1.03692,1.41488 -1.38577,1.88953 -0.93996,-0.804267 -1.87031,-1.61815 -2.79076,-2.43203 -1.9865,1.17234 -4.1183,2.68419 -6.56022,2.18015 -2.93607,-0.310115 -5.27141,-3.22668 -4.80638,-6.16303 0.280999,-2.26749 2.45153,-3.46895 3.96338,-4.88384 -0.688077,-1.78296 -2.36446,-3.63376 -1.33742,-5.62026zm2.40319 -0.0291162l0 0c-0.959187,1.78323 0.746309,3.32392 1.4245,4.85499 0.891616,-1.19212 3.07176,-2.22876 2.35484,-3.95376 -0.164809,-1.8508 -2.65535,-1.91865 -3.77934,-0.90123zm-1.97661 13.1495l0 0c1.68599,2.849 4.98052,1.02731 6.97691,-0.387575 -1.52146,-1.94749 -3.08165,-3.87603 -4.68057,-5.75595 -1.62776,1.56019 -4.1183,3.73072 -2.29634,6.14352z"/>
   </g>
   <g>
    <path id="_109702200" class="fil3" d="M231.74 107.376c0.668575,0 2.006,0 2.67457,0 2.53861,6.22126 5.11622,12.4422 7.62598,18.6731 -0.707305,0 -2.10269,0 -2.80038,0 -0.736421,-1.88981 -1.46323,-3.77934 -2.19003,-5.65926 -2.61634,-0.00961385 -5.23268,-0.00961385 -7.84902,0.00988853 -0.629844,1.81207 -1.25008,3.63376 -1.87003,5.45545 -0.697691,0.0678463 -2.08346,0.203539 -2.77154,0.261771 2.35484,-6.25999 4.78687,-12.4909 7.18045,-18.741zm1.33715 2.1513l0 0c-0.93996,2.9748 -2.00572,5.92076 -3.10088,8.84721 2.10296,0 4.19603,0 6.29872,0 -1.10477,-2.93634 -2.19965,-5.87241 -3.19784,-8.84721z"/>
   </g>
   <path id="_109702272" class="fil3" d="M284.173 107.454c0.658961,-0.0195024 1.96699,-0.0678463 2.62595,-0.0873487 -0.0483439,0.668575 -0.145306,2.006 -0.19365,2.67457 -0.532882,-0.00988853 -1.59892,-0.0291162 -2.1318,-0.0387301 -0.0678463,-0.629844 -0.223041,-1.90904 -0.300501,-2.54849z"/>
   <g>
    <path id="_109702368" class="fil3" d="M313.302 107.396c0.581501,-0.00961385 1.725,-0.0195024 2.30623,-0.0195024 0,6.28911 -0.0192277,12.5779 0.00961385,18.8668 -0.881727,-0.271385 -1.76345,-0.542496 -2.64518,-0.804267 -1.78323,0.494152 -3.75023,1.4245 -5.5428,0.416692 -4.4188,-2.22876 -4.7193,-9.2444 -1.28881,-12.4615 2.10269,-1.91865 5.00003,-0.998192 7.25791,0.0774602 -0.0486186,-2.02523 -0.0774602,-4.05045 -0.0969625,-6.07568zm-4.94207 7.03514l0 0c-2.84872,1.87964 -2.8196,6.66679 -0.716918,9.09882 2.01561,2.16092 5.63976,0.300501 5.74633,-2.45153 0.93996,-3.11049 -1.02731,-8.34317 -5.02942,-6.64729z"/>
   </g>
   <g>
    <path id="_110278360" class="fil3" d="M48.4895 126.098c-6.79287,-1.8508 -5.46534,-14.2639 1.92826,-13.8956 4.30261,-0.319729 6.20176,4.03095 6.44403,7.62598 -3.60464,0.0678463 -7.19967,0.0195024 -10.795,0.106576 0.920732,1.89942 1.76373,4.63195 4.38007,4.55449 2.37407,-0.387575 3.94388,-2.75203 6.47314,-2.87811 -1.23085,3.44011 -4.80638,5.71722 -8.43052,4.48665zm-2.19003 -8.6629l0 0 -0.872113 -0.0969625c3.20745,1.28881 6.70552,1.06576 9.94209,0.0291162l-0.852611 0.0966879c-1.18223,-1.19184 -1.93815,-3.57553 -4.03122,-3.29453 -2.1318,-0.310115 -2.9748,2.06396 -4.18614,3.26569z"/>
   </g>
   <path id="_110278432" class="fil3" d="M65.2341 112.522c0.571612,0 1.71511,0 2.287,0.00961385 -0.0195024,4.49626 -0.00988853,9.00213 -0.0291162,13.508 -0.561998,0.00988853 -1.69588,0.0195024 -2.25788,0.0195024 -0.0387301,-4.51576 -0.00961385,-9.02164 0,-13.5371z"/>
   <g>
    <path id="_110278528" class="fil3" d="M71.0483 112.221c0.891341,0.290888 1.78296,0.591114 2.6743,0.881727 2.18042,-0.746035 4.84511,-1.47284 6.75414,0.300501 3.63376,3.35276 3.05226,11.0372 -2.01561,12.7037 -1.78296,0.678463 -3.54669,-0.435919 -5.24229,-0.833383 0.0483439,1.9865 0.0774602,3.98288 0.0969625,5.96938 -0.571887,0 -1.725,-0.00988853 -2.29661,-0.00988853 0,-6.33717 -0.0387301,-12.6746 0.0291162,-19.0121zm3.92437 2.4128l0 0c-2.89734,2.39357 -2.79076,9.23479 1.59892,9.8259 3.58542,0.0291162 4.31222,-4.40891 3.66288,-7.14172 -0.222767,-2.40319 -3.16872,-4.38968 -5.2618,-2.68419z"/>
   </g>
   <g>
    <path id="_110278624" class="fil3" d="M85.9129 114.876c1.94777,-3.14922 6.91868,-3.60464 9.46717,-0.968801 1.5698,1.5503 1.62804,3.89526 2.11257,5.92048 -3.58542,0.0582325 -7.18045,0.0195024 -10.7659,0.106576 0.891616,1.92854 1.76373,4.63195 4.3993,4.57372 2.34496,-0.465036 3.91476,-2.76165 6.43441,-2.89734 -1.163,3.0138 -4.01172,5.43622 -7.42272,4.68057 -5.35876,-0.455696 -6.71541,-7.49056 -4.22487,-11.4152zm0.872113 3.02342l0 0c2.82949,0.106576 5.6686,0.0969625 8.50798,-0.0291162 -1.02731,-1.5698 -1.86069,-3.92437 -4.1573,-3.78868 -2.35457,-0.174423 -3.28491,2.19965 -4.35068,3.8178z"/>
   </g>
   <g>
    <path id="_110278720" class="fil3" d="M132.018 112.658c4.30261,-1.94777 9.43833,1.76345 8.87633,6.47287 0.532882,4.06995 -3.05253,7.91687 -7.19995,7.19006 -6.66679,-0.465036 -7.5194,-11.3567 -1.67638,-13.6629zm0.203539 2.23838l0 0c-2.90695,2.56772 -2.22876,9.60286 2.45153,9.56413 3.53707,-0.087074 4.38007,-4.40891 3.64365,-7.17083 -0.407078,-2.70341 -3.94388,-4.22487 -6.09518,-2.3933z"/>
   </g>
   <path id="_110278792" class="fil3" d="M145.943 113.782c1.33715,-1.53107 3.3816,-1.45361 5.25191,-1.53107 -0.445808,2.49026 -2.91684,2.31584 -4.65118,3.2753 -1.19184,3.36238 -0.571887,7.02525 -0.707579,10.5332 -0.571612,0 -1.71511,0 -2.27711,0 0.00961385,-4.70941 -0.106576,-9.41883 0.135693,-14.1186 0.561998,0.46531 1.68599,1.38577 2.24827,1.84119z"/>
   <g>
    <path id="_110278888" class="fil3" d="M155.934 126.107c-6.90906,-1.80218 -5.50407,-14.4285 2.00572,-13.9151 4.22515,-0.19365 6.08557,4.07957 6.30833,7.64576 -3.58542,0.0483439 -7.18045,0.00961385 -10.756,0.0966879 0.8625,1.96727 1.78296,4.70941 4.45753,4.57372 2.29661,-0.581226 3.88564,-2.73253 6.36629,-2.91657 -1.20146,3.43022 -4.75776,5.72683 -8.3819,4.51549zm-1.41488 -9.91298l0 0 -0.00961385 -0.852611c-0.145306,0.716918 -0.435919,2.16092 -0.591114,2.87784 2.59711,0.00961385 5.18434,0.00961385 7.78117,-0.00961385 -0.0192277,-0.368348 -0.0387301,-1.10477 -0.0579578,-1.47284 -1.38577,-2.76192 -5.59141,-3.76945 -7.12249,-0.54277z"/>
   </g>
   <path id="_110278960" class="fil3" d="M168.676 113.975c2.50976,-1.82169 6.84094,-2.88745 8.63379,0.416692 0.930071,3.79857 0.348845,7.78117 0.474649,11.6575 -0.571612,0 -1.71511,0 -2.29634,0 -0.0486186,-3.48845 0.309841,-7.03514 -0.320004,-10.4849 -1.18223,-2.25788 -5.13544,-1.58931 -5.73617,0.785039 -0.620231,3.18795 -0.290613,6.46325 -0.348845,9.68994 -0.561998,0 -1.69588,0.0195024 -2.25788,0.0195024 -0.0582325,-4.53499 -0.0582325,-9.06998 0,-13.605l2.01561 0.106576 -0.164809 1.41461z"/>
   <g>
    <path id="_110279056" class="fil3" d="M184.316 112.648c4.32156,-1.93788 9.42844,1.8508 8.83732,6.5506 0.503766,4.02134 -3.04265,7.8199 -7.14172,7.1321 -6.71514,-0.445808 -7.59714,-11.3957 -1.69561,-13.6827zm0.15492 2.24827l0 0c-2.93607,2.60673 -2.17053,9.72894 2.58722,9.57375 3.72111,-0.300227 4.35095,-4.99041 3.31403,-7.8199 -0.736421,-2.38369 -3.98261,-3.36238 -5.90126,-1.75384z"/>
   </g>
   <path id="_110279128" class="fil3" d="M243.348 117.134c-1.59892,-6.13391 10.4071,-6.79287 9.97121,-0.891341 -1.68627,0.387575 -2.53888,-1.10477 -3.52746,-2.12219 -1.55992,-0.00988853 -5.71694,0.15492 -3.99222,2.59684 2.568,1.66677 6.93818,1.18223 8.17864,4.42841 0.881727,3.86642 -3.75023,5.92076 -6.91895,5.09699 -2.30623,-0.145306 -5.30053,-2.87784 -3.13961,-5.03876 1.47284,1.28881 2.68419,3.62415 4.99041,3.26541 1.61842,0.0195024 2.48065,-1.57942 3.60492,-2.48065 -2.8685,-1.88953 -7.48095,-1.58903 -9.16694,-4.85472z"/>
   <g>
    <path id="_110279224" class="fil3" d="M259.89 112.609c4.31222,-1.84091 9.32186,1.91865 8.74064,6.57972 0.503766,3.97299 -2.92646,7.75206 -6.99641,7.15133 -6.86072,-0.280999 -7.80068,-11.5215 -1.74423,-13.731zm0.213153 2.18042l0 0c-3.14922,2.50976 -2.35457,9.89347 2.48065,9.67071 3.41099,-0.242269 4.16692,-4.4188 3.48845,-7.12221 -0.387575,-2.66468 -3.77907,-4.20565 -5.9691,-2.54849z"/>
   </g>
   <path id="_110302168" class="fil3" d="M271.324 123.045c-1.61842,-3.74995 -0.717193,-9.75778 3.97299,-10.6686 3.36238,-1.04654 6.34706,1.41461 7.31586,4.5251 -2.91657,-0.15492 -5.11622,-4.43803 -8.04267,-2.06396 -2.50976,2.47103 -2.44192,8.71152 1.59892,9.60314 2.98441,0.59084 3.57553,-3.75984 6.57944,-3.42088 -0.726807,1.43439 -1.19184,3.12038 -2.45153,4.20565 -2.81988,2.1513 -7.57764,1.19184 -8.97302,-2.18042z"/>
   <path id="_110302240" class="fil3" d="M284.386 112.551c0.571887,-0.00988853 1.7055,-0.0387301 2.27711,-0.0582325 0.0291162,4.51549 0.00988853,9.03125 0.0195024,13.5467 -0.571612,0 -1.7055,0.00988853 -2.27711,0.00988853 -0.0582325,-4.50615 -0.0387301,-9.00213 -0.0195024,-13.4984z"/>
   <g>
    <path id="_110302336" class="fil3" d="M289.357 116.805c1.09488,-4.88384 8.29455,-6.30833 11.3084,-2.62623 0.93996,4.00211 0.242269,8.21737 0.8625,12.2873 -0.97869,-0.46531 -1.94777,-0.93996 -2.90723,-1.41488 -2.36446,0.881727 -5.13572,2.08346 -7.52929,0.591114 -2.54849,-1.45361 -2.1318,-5.75595 0.668849,-6.65718 2.43203,-0.852611 5.03876,-1.04654 7.54852,-1.58903 -0.736421,-1.19212 -0.998192,-3.12999 -2.74242,-3.20745 -2.76165,-0.552384 -4.60284,2.20926 -7.20929,2.61634zm2.64518 4.69952l0 0c-1.09488,2.42269 2.18042,3.68238 4.04084,2.849 2.34523,-0.455422 2.5875,-3.12011 3.15911,-4.99041 -2.36446,0.678188 -5.34887,0.310115 -7.19995,2.14142z"/>
   </g>
   <g>
    <path id="_110302432" class="fil3" d="M321.965 112.754c3.92465,-1.93788 9.07987,0.998192 9.05075,5.46534 0.755923,3.96338 -2.05434,8.47887 -6.41491,8.13963 -7.07387,0.329618 -8.54671,-10.9691 -2.63584,-13.605zm0.90123 1.80246l0 0c-2.82949,1.87992 -2.82949,6.57972 -0.678188,8.97302 2.51938,2.38396 6.67641,-0.0579578 6.45364,-3.33326 0.910844,-3.33353 -2.19003,-7.58752 -5.77545,-5.63976z"/>
   </g>
   <path id="_110302504" class="fil3" d="M334.116 118.404c-2.64546,-2.71303 0.746035,-6.71514 4.00183,-6.20148 2.91684,-0.46531 4.88384,1.81207 5.87241,4.25399 -2.87811,-1.01769 -6.09518,-3.58542 -9.00213,-1.17261 1.95738,3.05226 6.22098,2.88773 9.01175,4.91295l0 3.38188c-1.63765,2.00572 -4.14741,3.29453 -6.77337,2.6938 -2.73253,-0.0387301 -3.75023,-2.86822 -5.02914,-4.75776 2.34496,0.872113 4.38968,2.62595 6.90906,2.96519 1.39538,-0.484538 2.45153,-1.5698 3.63376,-2.40319 -2.81988,-1.34704 -5.94987,-2.02523 -8.62417,-3.67277z"/>
   <path id="_110302576" class="fil3" d="M15.194 123.433c0.82377,0 1.64754,0.00961385 2.47103,0.00961385 0.0195024,0.891341 0.0387301,1.77334 0.0582325,2.66468 -0.726807,-0.0678463 -2.17053,-0.203539 -2.89734,-0.271385 0.0969625,-0.600728 0.280999,-1.80218 0.368073,-2.40291z"/>
  </g>
  <g id="_110302648">
   <path id="_110302672" class="fil4" d="M154.509 115.342l0.00961385 0.852611c0,0.397189 0,1.19184 0,1.58931 2.37407,-0.329618 4.75803,-0.658961 7.12249,-1.04654 0.0192277,0.368073 0.0387301,1.10449 0.0579578,1.47284 -2.59684,0.0192277 -5.18406,0.0192277 -7.78117,0.00961385 0.155195,-0.716918 0.445808,-2.16092 0.591114,-2.87784z"/>
  </g>
  <g id="_110302768">
   <path id="_110302792" class="fil5" d="M88.6163 140.943c3.14922,-0.998192 5.7076,1.34676 7.61664,3.5173 -0.620231,0.193925 -1.86069,0.561998 -2.48092,0.746309 -1.20146,-0.726807 -2.37407,-1.53107 -3.67249,-2.07384 -4.0988,0.184311 -4.22487,5.94026 -2.37407,8.5371 2.17053,2.23838 4.47676,-0.377962 6.18225,-1.76345 0.581501,0.271111 1.76373,0.833109 2.34523,1.10449 -1.5698,1.64726 -3.17861,3.37226 -5.43622,4.03122l-0.910844 0c-7.51968,-0.174423 -8.34345,-12.5779 -1.26958,-14.0991z"/>
   <path id="_110302888" class="fil5" d="M212.834 140.836c0.755923,-0.00961385 2.25788,-0.0483439 3.01353,-0.0675716 -0.852611,0.930071 -1.69561,1.86042 -2.54849,2.79076 -0.406803,0.0288415 -1.24019,0.0675716 -1.65688,0.0966879 0.397189,-0.93996 0.794653,-1.87992 1.19184,-2.81988z"/>
   <path id="_110302960" class="fil5" d="M237.118 141.079c0.872113,-0.0288415 1.75384,-0.0579578 2.63584,-0.087074 0.0291162,0.581501 0.0678463,1.76345 0.087074,2.34496 -0.658961,0.0486186 -1.97661,0.135693 -2.63557,0.184037 -0.0291162,-0.813881 -0.0582325,-1.62776 -0.0873487,-2.44192z"/>
   <path id="_110303032" class="fil5" d="M121.718 142.639c0.813881,-0.435919 1.62804,-0.881727 2.44192,-1.33715 0,0.8625 0,2.57761 0,3.43022 0.455422,0.0291162 1.35665,0.0873487 1.81207,0.11619 0,0.494427 0,1.47312 0,1.96727 -0.465036,0.0387301 -1.39538,0.0969625 -1.86042,0.135693 0.0387301,1.66677 0.0966879,3.33326 0.164534,5.00964 0.852886,0.891616 1.68627,1.82196 2.49054,2.76192 -1.57942,0.19365 -3.11049,0.0774602 -4.59322,-0.329618 -0.90123,-1.95738 -0.591114,-4.21526 -0.881727,-6.29844 -1.26958,-1.81207 -0.445808,-3.7115 0.426306,-5.45572z"/>
   <g>
    <path id="_110317504" class="fil5" d="M144.829 141.03c0.658686,0 1.9865,-0.00961385 2.64518,-0.00961385 0.00988853,4.53499 -0.00961385,9.06998 0.0486186,13.5951 -2.30623,-0.145306 -4.63195,0.223041 -6.92856,-0.00961385 -3.32364,-1.30803 -3.5563,-6.27922 -1.56019,-8.79859 1.53107,-1.90904 3.97299,-0.920457 5.92076,-0.455422 -0.0483439,-1.44373 -0.087074,-2.87811 -0.125804,-4.32184zm-2.95557 5.73645l0 0c-2.17053,1.25996 -1.86042,5.2813 0.474649,6.24049 3.75984,0.0582325 3.26569,-7.54852 -0.474649,-6.24049z"/>
   </g>
   <g>
    <path id="_110317600" class="fil5" d="M195.789 141.001c2.55838,0.0291162 5.14561,-0.125804 7.6941,0.280999 3.43022,0.717193 3.73072,6.18225 0.736421,7.6746 -1.84119,0.581501 -3.78868,0.561998 -5.67849,0.746309 -0.00961385,1.66649 -0.00961385,3.32364 -0.00961385,4.99041 -0.688077,0 -2.05434,0.00961385 -2.74242,0.00961385 -0.00961385,-4.56411 -0.00961385,-9.12821 0,-13.7019zm2.75203 2.10269l0 0c-0.00961385,1.46323 -0.00961385,2.92646 0,4.38968 1.81207,-0.406803 5.5623,-0.0774602 4.84511,-2.9943 -1.18223,-1.42422 -3.24618,-0.988304 -4.84511,-1.39538z"/>
   </g>
   <g>
    <path id="_110317696" class="fil5" d="M220.063 141.001c0.688077,0.0195024 2.05434,0.0678463 2.73281,0.0969625 -0.0678463,1.30803 -0.135693,2.60673 -0.203539,3.91476 2.06396,-0.0678463 4.84511,-0.969076 6.22098,1.17261 1.89942,2.93607 0.910844,7.0931 -2.1123,8.85683l-0.804267 0c-1.93815,-0.232655 -3.88592,-0.42658 -5.8433,-0.561998 0.00961385,-4.49626 0,-8.98291 0.00961385,-13.4792zm4.17653 5.61064l0 0c-2.42242,1.17261 -2.11257,5.72683 0.581501,6.38579 3.32364,-0.368073 3.01353,-7.08348 -0.581501,-6.38579z"/>
   </g>
   <g>
    <path id="_110317792" class="fil5" d="M97.9094 147.445c1.64726,-4.25399 8.83732,-3.63376 9.61248,0.930346 0.930346,3.04265 -1.32754,5.72683 -4.07957,6.66679l-1.25008 0c-3.58514,-0.445808 -5.92048,-4.26388 -4.28283,-7.59714zm4.21499 -0.726807l0 0c-2.9748,0.629844 -2.58722,6.31795 0.610617,6.03695 3.37226,-0.203539 2.88773,-6.63768 -0.610617,-6.03695z"/>
   </g>
   <path id="_110317864" class="fil5" d="M109.702 144.848c2.71303,0.562273 5.9691,-1.04654 8.33356,0.736696 1.29842,2.80038 0.523268,6.10479 0.736421,9.11832 -0.649347,0 -1.94777,0 -2.59711,0 -0.19365,-2.6938 0.436194,-5.62026 -0.775151,-8.13002 -4.5446,-0.407078 -2.60673,5.3876 -3.12011,8.13002 -0.639733,0 -1.90904,0 -2.54877,0 0,-3.28491 0,-6.56983 -0.0288415,-9.85502z"/>
   <g>
    <path id="_110317960" class="fil5" d="M126.631 147.106c2.19965,-2.25788 5.93999,-3.73072 8.6629,-1.43411 0.697691,2.92646 0.561998,5.9691 0.794653,8.9439 -0.804267,0.00988853 -2.42242,0.0390048 -3.22668,0.0486186 -0.610617,0.0969625 -1.82196,0.280999 -2.42269,0.377962l-0.997918 0c-1.49234,-0.969076 -3.13988,-2.568 -2.06423,-4.47703 2.11257,-1.52119 4.66107,-2.25761 6.94779,-3.45934 -2.55811,-0.145306 -5.13572,-0.0387301 -7.69383,0zm2.74242 5.00991l0 0c0.610342,0.290613 1.8118,0.8625 2.42242,1.15311 0.833383,-1.02731 1.45361,-2.20926 2.11257,-3.35276 -1.57969,0.532882 -3.84719,0.290613 -4.53499,2.19965z"/>
   </g>
   <g>
    <path id="_110318056" class="fil5" d="M149.635 148.269c0.8625,-4.50615 7.94598,-5.00991 9.59325,-0.814156 1.63765,3.30442 -0.794379,6.96729 -4.21499,7.58752l-0.649347 0c-3.2558,-0.416692 -5.81418,-3.44972 -4.72892,-6.77337zm3.96338 -1.33742l0 0c-2.53888,1.33742 -1.7055,6.2696 1.48246,5.97899 3.2753,-1.06604 2.13208,-7.46145 -1.48246,-5.97899z"/>
   </g>
   <path id="_110318128" class="fil5" d="M161.612 144.838c2.30623,0.0678463 4.62206,-0.0387301 6.93818,0.00961385 -0.872113,1.49234 -2.13208,2.60673 -3.95376,2.50015 -0.23238,2.45153 -0.338957,4.91295 -0.426306,7.37437 -0.629844,-0.00988853 -1.89915,-0.0291162 -2.52899,-0.0390048 0.00961385,-3.28491 0.00961385,-6.56983 -0.0291162,-9.84513z"/>
   <g>
    <path id="_110318224" class="fil5" d="M172.823 155.042c-5.68783,-0.368348 -5.94932,-9.91298 -0.329343,-10.4557 3.57553,-0.688077 4.88384,3.06215 5.6881,5.74633 -2.67457,0.135693 -5.33926,0.271111 -7.99405,0.552384 2.2186,2.37407 5.30987,1.44373 8.12975,1.21107 -1.54096,1.10477 -3.08165,2.23838 -4.85499,2.94596l-0.639458 0zm-2.3933 -6.4053l0 0c1.75384,0.126079 3.52718,0.174423 5.30025,0.145306 -0.794379,-0.813881 -1.55992,-1.65688 -2.42242,-2.38369 -1.03692,0.649347 -1.99584,1.39538 -2.87784,2.23838z"/>
   </g>
   <path id="_110318296" class="fil5" d="M181.612 144.79c2.62595,-0.998192 5.00003,0.746035 7.02525,2.18015 -2.60645,0.0195024 -5.21318,-0.15492 -7.8199,-0.0579578 2.36446,1.18223 5.11649,1.73434 7.19006,3.44972 0.998192,2.73253 -1.72472,4.2636 -3.97299,4.6803l-0.687802 0c-2.06396,-0.455422 -3.67277,-1.86069 -5.24229,-3.17834 2.80038,0.377687 5.61037,0.920457 8.45936,0.668575 -2.33534,-1.26958 -4.97091,-2.01561 -7.0931,-3.64365 -0.707579,-1.71511 0.280999,-3.75956 2.14142,-4.0988z"/>
   <path id="_110318368" class="fil5" d="M246.304 155.042c-5.35876,-0.397464 -6.09518,-9.12821 -0.93996,-10.3201 2.8196,-1.01742 4.91268,1.28881 6.33717,3.35276 -2.20926,-0.377962 -4.38968,-0.998192 -6.62806,-1.20146 -0.571612,1.8508 -0.571612,3.8373 0.106576,5.65899 2.30623,-0.174423 4.49626,-1.02731 6.75414,-1.50196 -1.27919,1.7055 -2.68419,3.47857 -4.86461,4.01172l-0.765262 0z"/>
   <g>
    <path id="_110318464" class="fil5" d="M255.277 145.052c3.08138,-1.58903 7.34498,0.561998 7.43233,4.15703 0.552384,3.67277 -3.35276,6.76375 -6.81237,5.46534 -4.31195,-1.08527 -4.55422,-7.91687 -0.619956,-9.62236zm1.92826 1.68627l0 0c-2.94568,0.571612 -2.70369,6.15314 0.503766,6.05618 3.44972,-0.145306 2.96519,-6.68602 -0.503766,-6.05618z"/>
   </g>
   <path id="_110328096" class="fil5" d="M264.473 149.054c-0.784765,-1.76373 0.213153,-3.95349 2.16092,-4.29272 2.57761,-0.910844 4.95168,0.794653 7.03514,2.06396 -2.65507,0.145306 -5.31014,0.0195024 -7.96521,0.0969625 2.4128,1.20146 5.32937,1.64726 7.29664,3.59503 0.775151,2.20926 -1.32754,3.60464 -2.9748,4.52538l-1.95765 0c-1.89915,-0.639733 -3.49807,-1.87992 -5.03876,-3.11049 2.74242,0.309841 5.52329,1.01742 8.27533,0.397189 -2.26749,-1.124 -4.6998,-1.90904 -6.8316,-3.2753z"/>
   <path id="_110328168" class="fil5" d="M208.377 144.809c0.639733,-0.0192277 1.91865,-0.0387301 2.55838,-0.0483439 0.11619,2.67457 0.0483439,5.3876 0.649072,8.01383 1.17261,0.445533 2.30623,0.11619 2.90723,-0.998192 0.484263,-2.29661 0.368073,-4.66107 0.484263,-6.98652 0.620231,0 1.86069,0 2.47103,0 0.00988853,3.2558 0.0291162,6.5116 0.0969625,9.76767 -0.813881,0.0192277 -2.45153,0.0387301 -3.2753,0.0483439 -0.542496,0.106576 -1.62776,0.329618 -2.17053,0.436194l-1.27919 0c-3.61426,-2.14169 -2.04445,-6.81237 -2.44192,-10.233z"/>
   <path id="_110328240" class="fil5" d="M237.156 144.8c0.658961,-0.00961385 1.97688,-0.00961385 2.62623,-0.0192277 0,3.30414 0,6.60856 -0.00988853,9.92259 -0.649072,-0.00961385 -1.95738,-0.00961385 -2.60645,-0.00961385 0,-3.30442 0,-6.59895 -0.00988853,-9.89375z"/>
  </g>
  <g id="_110328312">
   <path id="_110328336" class="fil5" d="M231.856 141.011c0.658961,0.00988853 1.96727,0.0195024 2.62623,0.0195024 0.0192277,4.56411 0.00961385,9.11832 0.00961385,13.6824 -0.658961,0 -1.97688,0 -2.63584,0 -0.00961385,-4.56411 -0.00961385,-9.13783 0,-13.7019z"/>
  </g>
 </g>
</svg>
