<?xml version="1.0" encoding="UTF-8" ?>
<!DOCTYPE svg PUBLIC "-//W3C//DTD SVG 1.1//EN" "http://www.w3.org/Graphics/SVG/1.1/DTD/svg11.dtd">
<svg width="344pt" height="155pt" viewBox="0 0 344 155" version="1.1" xmlns="http://www.w3.org/2000/svg">
<g id="#006da6ff">
<path fill="#006da6" opacity="1.00" d=" M 171.42 0.00 L 176.16 0.00 C 182.84 1.42 187.19 9.41 183.67 15.56 C 180.02 23.09 168.01 23.27 164.11 15.87 C 160.30 9.73 164.62 1.48 171.42 0.00 Z" />
<path fill="#006da6" opacity="1.00" d=" M 137.26 63.12 C 143.99 61.17 151.65 66.88 151.12 73.99 C 151.04 81.24 142.68 86.35 136.08 83.60 C 130.33 81.67 127.16 74.42 130.02 68.97 C 131.41 66.07 134.15 63.90 137.26 63.12 Z" />
</g>
<g id="#3bb3c3ff">
<path fill="#3bb3c3" opacity="1.00" d=" M 170.45 31.67 C 176.40 29.65 183.58 33.62 184.69 39.88 C 186.09 45.97 181.04 52.26 174.90 52.63 C 169.48 53.29 163.88 49.38 162.91 43.95 C 161.74 38.68 165.34 33.15 170.45 31.67 Z" />
<path fill="#3bb3c3" opacity="1.00" d=" M 202.39 31.63 C 208.71 29.53 216.24 34.28 216.63 41.01 C 217.40 47.43 211.31 53.25 204.98 52.67 C 199.10 52.54 193.94 47.02 194.55 41.10 C 194.84 36.70 198.18 32.81 202.39 31.63 Z" />
</g>
<g id="#788991ff">
<path fill="#788991" opacity="1.00" d=" M 170.26 63.26 C 176.44 61.03 183.91 65.35 184.85 71.88 C 185.97 77.88 181.01 83.86 175.02 84.32 C 169.31 85.10 163.45 80.75 162.72 75.01 C 161.90 69.90 165.43 64.79 170.26 63.26 Z" />
<path fill="#788991" opacity="1.00" d=" M 29.45 107.45 C 33.57 107.49 37.69 107.50 41.81 107.44 C 41.80 107.95 41.78 108.97 41.76 109.49 C 38.38 109.42 35.00 109.43 31.62 109.43 C 31.63 111.45 31.64 113.47 31.63 115.49 C 34.59 115.47 37.56 115.47 40.53 115.45 C 40.51 115.95 40.48 116.95 40.47 117.45 C 37.51 117.42 34.56 117.42 31.60 117.42 C 31.65 120.24 31.65 123.07 31.69 125.89 C 31.12 125.86 29.99 125.81 29.43 125.78 C 29.53 119.67 29.49 113.56 29.45 107.45 Z" />
<path fill="#788991" opacity="1.00" d=" M 59.45 107.43 C 59.97 107.43 61.01 107.44 61.53 107.44 C 61.49 113.57 61.46 119.70 61.55 125.83 C 61.02 125.83 59.95 125.83 59.42 125.83 C 59.52 119.70 59.46 113.56 59.45 107.43 Z" />
<path fill="#788991" opacity="1.00" d=" M 65.39 107.36 C 65.89 107.40 66.89 107.47 67.40 107.51 C 67.42 108.07 67.46 109.18 67.49 109.73 C 66.93 109.77 65.82 109.85 65.27 109.88 C 65.30 109.25 65.36 107.99 65.39 107.36 Z" />
<path fill="#788991" opacity="1.00" d=" M 107.57 107.45 C 108.77 107.47 109.96 107.48 111.16 107.50 C 113.02 112.78 114.35 118.26 116.75 123.33 C 118.38 118.02 120.38 112.83 122.00 107.51 C 122.82 107.50 124.44 107.47 125.25 107.45 C 125.29 113.54 125.21 119.63 125.29 125.73 C 124.76 125.79 123.70 125.92 123.17 125.98 C 123.18 120.94 123.33 115.90 123.08 110.86 C 120.36 115.47 119.40 120.91 117.44 125.87 C 116.89 125.84 115.78 125.78 115.22 125.75 C 113.62 120.64 111.98 115.53 110.00 110.55 C 109.36 115.67 109.82 120.84 109.72 125.99 C 109.17 125.92 108.07 125.78 107.52 125.71 C 107.67 119.62 107.59 113.53 107.57 107.45 Z" />
<path fill="#788991" opacity="1.00" d=" M 206.32 108.29 C 208.65 106.01 213.81 107.35 213.61 110.99 C 213.79 113.27 211.41 114.41 210.12 115.89 C 211.40 117.31 212.70 118.72 214.05 120.08 C 214.15 119.41 214.35 118.08 214.45 117.41 L 216.79 117.73 C 216.24 119.15 215.68 120.57 215.12 122.00 C 216.11 122.96 217.09 123.92 218.08 124.88 C 216.52 126.35 215.07 125.34 213.81 124.06 C 211.71 125.11 209.46 126.91 206.98 126.06 C 204.23 125.54 202.06 122.74 202.58 119.92 C 203.16 117.79 205.19 116.62 206.74 115.27 C 205.37 113.37 204.09 110.03 206.32 108.29 M 207.82 108.49 C 207.63 109.11 207.25 110.35 207.06 110.98 C 207.24 111.57 207.60 112.76 207.78 113.36 C 208.32 113.54 209.41 113.90 209.95 114.08 C 210.98 112.87 211.92 111.43 211.44 109.77 C 210.37 109.01 209.16 108.58 207.82 108.49 M 207.16 116.80 C 206.33 117.79 205.47 118.77 204.74 119.85 C 204.32 121.66 205.86 123.01 206.61 124.47 C 207.49 124.43 209.23 124.33 210.11 124.29 C 210.94 123.57 211.78 122.85 212.62 122.13 C 211.40 120.65 210.19 119.16 209.04 117.62 C 208.57 117.41 207.63 117.00 207.16 116.80 Z" />
<path fill="#788991" opacity="1.00" d=" M 284.45 107.42 C 284.96 107.43 285.98 107.45 286.48 107.46 C 286.51 108.04 286.55 109.20 286.58 109.78 C 286.02 109.79 284.91 109.82 284.35 109.83 C 284.38 109.22 284.43 108.02 284.45 107.42 Z" />
<path fill="#788991" opacity="1.00" d=" M 313.38 107.39 C 313.89 107.42 314.92 107.47 315.44 107.49 C 315.38 113.66 315.41 119.82 315.41 125.98 C 314.50 125.77 313.59 125.57 312.69 125.38 C 309.88 126.05 306.09 126.43 304.78 123.15 C 303.68 119.81 303.46 114.90 307.01 112.90 C 309.12 111.62 311.53 112.75 313.47 113.79 C 313.41 111.66 313.39 109.52 313.38 107.39 M 306.69 123.30 C 308.39 124.19 311.00 125.53 312.39 123.42 C 314.78 120.26 313.68 115.18 310.08 113.33 C 305.58 114.57 305.27 119.61 306.69 123.30 Z" />
<path fill="#788991" opacity="1.00" d=" M 0.00 107.58 C 0.61 107.54 1.84 107.46 2.45 107.42 C 2.53 112.94 2.22 118.48 2.60 124.00 C 5.38 124.49 8.79 123.18 11.15 125.00 C 7.95 126.97 3.64 125.47 0.00 125.94 L 0.00 107.58 Z" />
<path fill="#788991" opacity="1.00" d=" M 224.88 126.27 C 226.70 119.77 229.62 113.63 231.82 107.25 C 232.41 107.37 233.60 107.60 234.19 107.71 C 237.05 113.63 239.10 119.92 241.88 125.88 C 241.19 125.85 239.82 125.78 239.13 125.74 C 238.48 123.91 237.80 122.08 237.13 120.25 C 234.38 120.27 231.64 120.28 228.89 120.38 C 227.99 122.63 228.05 126.10 224.88 126.27 M 232.88 109.61 C 231.88 112.62 230.84 115.61 229.49 118.48 C 231.84 118.48 234.19 118.48 236.55 118.49 C 235.35 115.52 234.23 112.52 232.88 109.61 Z" />
<path fill="#788991" opacity="1.00" d=" M 45.82 113.81 C 48.19 112.60 51.27 111.47 53.67 113.24 C 55.94 114.56 56.23 117.33 56.75 119.64 C 53.19 119.68 49.63 119.65 46.07 119.68 C 46.68 121.58 47.38 124.62 49.95 124.51 C 52.50 125.18 53.77 122.60 55.42 121.25 C 57.08 125.95 50.52 126.56 47.40 125.52 C 43.21 123.16 43.79 117.45 45.82 113.81 M 46.08 118.19 C 48.91 118.21 51.74 118.20 54.57 118.24 C 54.13 117.05 53.69 115.85 53.26 114.66 C 52.14 114.32 51.01 114.02 49.87 113.75 C 47.71 114.26 46.86 116.36 46.08 118.19 Z" />
<path fill="#788991" opacity="1.00" d=" M 65.36 112.52 C 65.87 112.55 66.89 112.59 67.40 112.62 C 67.38 116.99 67.36 121.37 67.43 125.75 C 66.91 125.79 65.87 125.87 65.34 125.92 C 65.38 121.45 65.37 116.99 65.36 112.52 Z" />
<path fill="#788991" opacity="1.00" d=" M 75.01 112.91 C 77.08 111.65 79.30 112.85 81.21 113.81 C 82.68 117.01 83.42 121.08 81.10 124.10 C 79.20 126.86 75.52 125.62 72.79 125.23 C 72.22 127.04 74.22 131.54 71.29 131.18 C 71.23 124.74 70.90 118.27 71.54 111.86 C 72.35 113.49 73.55 113.91 75.01 112.91 M 78.17 124.43 C 81.43 122.32 80.81 117.82 79.40 114.77 C 78.78 114.44 77.55 113.79 76.94 113.47 C 70.99 114.57 71.49 125.98 78.17 124.43 Z" />
<path fill="#788991" opacity="1.00" d=" M 86.91 113.85 C 89.24 111.56 93.71 111.76 95.68 114.46 C 96.98 115.87 96.68 117.95 97.02 119.70 C 93.60 119.66 90.18 119.65 86.76 119.68 C 86.99 123.11 89.85 125.26 93.21 124.52 C 93.50 123.99 94.09 122.93 94.39 122.40 C 95.10 122.27 96.53 122.02 97.25 121.89 C 96.21 123.47 95.30 125.86 93.02 125.78 C 90.17 126.18 86.47 125.91 85.45 122.66 C 85.11 119.76 84.42 116.02 86.91 113.85 M 86.88 118.20 C 89.64 118.21 92.40 118.21 95.15 118.18 C 94.78 115.79 93.16 114.24 90.98 113.36 C 88.94 114.34 87.21 115.83 86.88 118.20 Z" />
<path fill="#788991" opacity="1.00" d=" M 129.81 113.81 C 132.72 111.98 136.26 111.97 139.17 113.81 C 140.79 116.92 141.66 121.26 139.19 124.16 C 137.35 126.48 133.99 125.96 131.44 125.52 C 127.28 123.15 127.82 117.47 129.81 113.81 M 132.82 124.39 C 134.38 124.51 136.38 124.93 137.38 123.34 C 139.48 120.97 138.59 117.35 137.38 114.75 C 136.17 114.35 134.96 113.93 133.77 113.51 C 129.74 115.48 128.98 121.89 132.82 124.39 Z" />
<path fill="#788991" opacity="1.00" d=" M 143.70 112.11 C 144.39 112.64 145.08 113.16 145.77 113.68 C 147.13 112.61 148.80 112.35 150.48 112.34 C 150.48 112.89 150.47 113.98 150.47 114.53 C 149.19 114.53 147.91 114.54 146.63 114.54 C 145.25 118.19 145.64 122.12 145.68 125.93 C 145.15 125.88 144.09 125.78 143.56 125.73 C 143.66 121.19 143.56 116.65 143.70 112.11 Z" />
<path fill="#788991" opacity="1.00" d=" M 154.56 125.45 C 149.28 122.33 151.20 111.89 157.89 112.33 C 161.97 112.06 163.89 116.20 164.02 119.67 C 160.44 119.67 156.85 119.64 153.27 119.67 C 154.00 121.27 154.45 123.15 155.93 124.26 C 157.32 124.42 158.72 124.48 160.13 124.45 C 160.41 123.88 160.98 122.76 161.27 122.19 C 161.96 122.21 163.35 122.25 164.05 122.27 C 162.98 123.41 162.22 125.02 160.72 125.63 C 158.70 125.91 156.54 126.05 154.56 125.45 M 154.89 114.89 C 154.42 116.01 153.95 117.13 153.47 118.25 C 156.29 118.20 159.11 118.21 161.93 118.20 C 161.57 116.00 160.06 114.49 158.19 113.47 C 157.09 113.95 155.99 114.42 154.89 114.89 Z" />
<path fill="#788991" opacity="1.00" d=" M 168.81 114.09 C 171.17 112.10 175.68 111.26 177.27 114.59 C 177.91 118.31 177.47 122.12 177.64 125.88 C 177.11 125.86 176.04 125.81 175.51 125.79 C 175.63 122.04 175.60 118.29 175.36 114.55 C 173.54 114.25 171.70 114.26 169.89 114.58 C 169.63 115.18 169.10 116.39 168.83 117.00 C 168.78 120.11 168.81 123.22 168.76 126.33 C 168.28 126.10 167.33 125.64 166.86 125.41 C 166.71 122.89 167.14 120.38 167.33 117.87 L 166.54 117.14 C 166.84 115.26 167.25 113.41 167.87 111.61 C 168.10 112.23 168.57 113.47 168.81 114.09 Z" />
<path fill="#788991" opacity="1.00" d=" M 184.50 112.65 C 187.59 111.58 191.64 112.94 192.56 116.29 C 193.23 119.57 193.13 124.01 189.56 125.58 C 187.01 125.93 183.63 126.48 181.91 124.03 C 179.44 120.48 180.05 114.33 184.50 112.65 M 183.99 114.89 C 183.66 115.40 182.99 116.40 182.66 116.90 C 182.55 119.53 182.42 122.63 184.87 124.33 C 186.75 124.80 188.93 124.68 190.04 122.85 C 191.67 119.51 190.95 114.93 187.17 113.47 C 186.11 113.94 185.05 114.42 183.99 114.89 Z" />
<path fill="#788991" opacity="1.00" d=" M 245.09 113.01 C 247.98 111.50 253.26 112.20 253.12 116.36 C 251.14 115.46 249.42 113.21 247.04 113.89 C 245.60 114.43 245.02 115.50 245.31 117.11 C 248.39 118.21 254.59 118.13 253.73 122.87 C 252.18 127.92 243.34 127.13 242.76 121.71 C 244.34 121.98 245.46 123.00 246.32 124.29 C 248.01 124.40 249.71 124.41 251.41 124.41 C 251.45 123.54 251.52 121.78 251.56 120.90 C 249.37 120.35 247.11 119.92 245.05 118.96 C 242.60 118.01 242.76 114.02 245.09 113.01 Z" />
<path fill="#788991" opacity="1.00" d=" M 260.39 112.52 C 265.47 110.87 269.75 116.34 268.31 121.09 C 267.88 126.92 258.53 127.75 256.55 122.60 C 255.54 118.95 255.91 113.54 260.39 112.52 M 258.92 122.84 C 260.03 124.80 262.41 124.42 264.30 124.57 C 266.69 121.84 266.89 118.06 265.23 114.90 C 264.09 114.44 262.95 113.97 261.83 113.50 C 257.97 114.87 257.33 119.50 258.92 122.84 Z" />
<path fill="#788991" opacity="1.00" d=" M 273.93 112.92 C 277.09 111.25 281.69 112.90 281.96 116.79 C 281.50 116.67 280.58 116.44 280.12 116.33 C 279.20 115.32 278.24 114.36 277.26 113.42 C 276.16 113.91 275.07 114.40 273.98 114.89 C 273.67 115.42 273.04 116.46 272.73 116.98 C 272.67 119.57 272.49 122.62 274.83 124.35 C 276.12 124.43 277.42 124.44 278.72 124.37 C 279.54 122.96 280.16 121.22 281.93 120.78 C 281.86 122.78 281.09 125.27 278.85 125.70 C 276.52 125.90 273.49 126.35 272.00 124.07 C 269.72 120.70 270.10 115.01 273.93 112.92 Z" />
<path fill="#788991" opacity="1.00" d=" M 284.44 112.54 C 284.95 112.56 285.98 112.58 286.49 112.60 C 286.48 117.00 286.44 121.40 286.54 125.81 C 286.01 125.82 284.95 125.84 284.42 125.85 C 284.45 121.41 284.44 116.98 284.44 112.54 Z" />
<path fill="#788991" opacity="1.00" d=" M 293.41 112.57 C 295.78 112.18 299.12 111.90 300.52 114.32 C 301.08 117.53 300.71 120.83 300.79 124.08 C 301.03 124.60 301.51 125.64 301.75 126.16 C 300.49 125.77 299.28 125.27 298.16 124.57 C 295.56 127.27 289.29 126.65 289.44 122.18 C 290.06 117.92 295.35 118.28 298.56 118.16 C 298.60 116.97 298.63 115.77 298.67 114.59 C 296.74 114.03 294.72 113.65 292.82 114.48 C 292.31 115.18 291.29 116.58 290.78 117.28 C 289.38 115.08 291.20 112.94 293.41 112.57 M 291.48 120.78 C 291.67 121.61 292.03 123.27 292.22 124.10 C 294.23 125.32 296.48 124.18 298.40 123.36 C 298.57 121.97 298.74 120.59 298.92 119.20 C 296.42 119.64 293.95 120.19 291.48 120.78 Z" />
<path fill="#788991" opacity="1.00" d=" M 322.51 112.60 C 325.37 111.74 329.03 112.78 330.19 115.74 C 331.93 119.65 330.33 126.38 325.04 125.85 C 317.43 127.37 315.90 114.62 322.51 112.60 M 322.82 124.36 C 325.04 125.09 326.99 124.03 328.51 122.48 C 328.56 120.76 328.72 119.03 328.52 117.33 C 328.40 115.39 326.34 114.58 325.16 113.36 C 319.95 114.16 318.78 121.48 322.82 124.36 Z" />
<path fill="#788991" opacity="1.00" d=" M 333.73 118.05 C 332.32 115.58 334.17 112.37 337.02 112.40 C 339.79 111.70 341.98 113.64 344.00 115.18 L 344.00 115.63 C 342.71 115.82 341.43 116.00 340.16 116.18 L 341.70 114.76 C 339.61 114.06 337.43 113.98 335.28 114.33 C 335.35 115.25 335.43 116.17 335.52 117.09 C 338.50 117.81 341.52 118.68 343.99 120.59 L 344.00 117.14 L 344.00 122.89 C 341.72 127.85 333.42 127.17 332.66 121.48 C 335.26 123.30 337.99 125.04 341.34 124.54 C 341.41 123.34 341.49 122.15 341.56 120.95 C 338.91 120.16 335.94 119.84 333.73 118.05 Z" />
<path fill="#788991" opacity="1.00" d=" M 15.31 123.42 C 15.86 123.45 16.96 123.49 17.51 123.52 C 17.56 124.08 17.65 125.21 17.70 125.77 C 17.05 125.80 15.77 125.85 15.12 125.88 C 15.17 125.27 15.26 124.04 15.31 123.42 Z" />
<path fill="#788991" opacity="1.00" d=" M 87.35 141.22 C 89.80 141.30 92.28 141.48 94.59 142.41 C 94.64 143.05 94.75 144.33 94.81 144.98 C 94.40 144.82 93.59 144.51 93.18 144.36 C 91.39 141.80 88.29 142.59 86.27 144.39 C 86.61 146.70 86.13 149.44 87.66 151.40 C 89.15 153.01 91.54 152.01 92.92 150.80 C 93.75 149.69 95.42 150.41 94.92 151.80 C 94.56 153.73 92.27 154.06 90.88 155.00 L 89.24 155.00 C 87.65 153.93 85.67 153.19 84.67 151.45 C 83.66 147.77 84.21 143.69 87.35 141.22 Z" />
<path fill="#788991" opacity="1.00" d=" M 144.52 141.31 C 145.28 141.37 146.67 140.86 146.79 142.05 C 147.06 145.37 147.22 148.71 147.08 152.04 C 147.09 154.23 144.40 154.11 143.00 155.00 L 141.87 155.00 C 137.65 153.85 137.83 149.17 138.85 145.79 C 141.09 145.10 143.47 145.48 145.77 145.58 C 145.46 144.51 144.83 142.38 144.52 141.31 M 140.43 146.48 C 140.39 148.57 140.38 150.67 140.43 152.77 C 142.18 152.58 144.44 153.29 145.49 151.40 C 145.50 149.67 144.97 148.03 144.52 146.40 C 143.15 146.42 141.79 146.45 140.43 146.48 Z" />
<path fill="#788991" opacity="1.00" d=" M 196.27 141.25 C 199.42 141.42 202.79 140.92 205.63 142.64 C 205.55 144.48 205.87 146.42 205.15 148.17 C 203.37 148.97 201.33 148.50 199.45 148.59 L 199.42 149.64 C 198.97 149.55 198.08 149.38 197.64 149.29 C 197.63 151.20 197.68 153.14 197.09 154.99 C 195.54 150.61 196.78 145.80 196.27 141.25 M 198.65 143.51 L 197.54 143.55 C 197.56 144.52 197.59 146.48 197.61 147.46 C 199.57 147.45 201.52 147.45 203.48 147.47 C 203.50 146.10 203.54 144.74 203.58 143.37 L 202.32 143.77 L 202.64 142.56 C 201.58 142.56 199.46 142.55 198.40 142.55 L 198.65 143.51 Z" />
<path fill="#788991" opacity="1.00" d=" M 220.28 141.17 C 220.85 141.23 221.99 141.34 222.56 141.40 C 222.45 142.79 222.34 144.18 222.23 145.57 C 224.31 145.44 226.40 145.39 228.48 145.42 C 228.49 146.20 228.51 147.77 228.52 148.55 L 229.50 148.43 L 229.56 150.58 L 228.43 150.45 C 228.51 151.17 228.65 152.61 228.72 153.33 C 226.91 154.39 224.69 155.04 222.93 153.49 C 222.27 153.58 220.96 153.77 220.30 153.87 C 220.40 149.64 220.42 145.40 220.28 141.17 M 222.50 146.33 C 222.47 148.44 222.46 150.55 222.48 152.66 C 224.13 152.66 225.78 152.64 227.43 152.61 C 227.40 150.78 227.41 148.95 227.46 147.13 C 225.88 146.50 224.18 146.37 222.50 146.33 Z" />
<path fill="#788991" opacity="1.00" d=" M 232.36 141.01 C 232.68 141.02 233.32 141.03 233.65 141.04 C 233.32 145.67 234.37 150.50 232.96 154.99 C 231.75 150.44 232.61 145.66 232.36 141.01 Z" />
<path fill="#788991" opacity="1.00" d=" M 237.33 141.29 C 238.35 139.71 240.67 141.61 239.57 143.01 C 238.53 144.61 236.20 142.70 237.33 141.29 Z" />
<path fill="#788991" opacity="1.00" d=" M 121.80 141.24 C 123.43 142.44 124.74 144.14 125.59 145.95 C 122.90 148.57 123.55 152.74 126.39 155.00 L 126.04 155.00 L 122.78 154.22 C 121.90 149.96 121.28 145.59 121.80 141.24 Z" />
<path fill="#788991" opacity="1.00" d=" M 98.44 145.30 C 100.83 145.20 103.34 144.58 105.67 145.35 C 107.55 146.53 107.15 149.12 107.13 151.01 C 107.20 153.52 104.45 154.11 102.68 155.00 L 102.18 155.00 C 102.32 154.91 102.60 154.73 102.74 154.64 C 101.66 154.28 99.52 153.56 98.45 153.20 C 98.39 150.57 98.42 147.93 98.44 145.30 M 100.50 146.48 C 100.03 148.04 99.52 149.62 99.51 151.28 C 100.62 152.20 101.83 152.99 103.02 153.80 C 103.80 153.00 104.59 152.21 105.37 151.42 C 105.40 150.40 105.46 148.37 105.49 147.36 L 104.22 147.73 L 104.65 146.47 C 103.61 146.48 101.53 146.48 100.50 146.48 Z" />
<path fill="#788991" opacity="1.00" d=" M 110.31 145.06 C 112.81 145.77 115.42 145.36 117.97 145.33 C 118.11 148.48 120.01 153.03 116.64 154.99 C 116.37 152.15 116.38 149.30 116.44 146.45 C 115.50 146.45 113.63 146.44 112.69 146.43 C 112.43 147.02 111.93 148.20 111.68 148.79 C 111.64 150.87 111.81 153.02 110.97 154.99 C 109.92 151.79 110.49 148.37 110.31 145.06 Z" />
<path fill="#788991" opacity="1.00" d=" M 126.92 145.46 C 129.49 145.24 132.15 144.75 134.70 145.34 C 136.71 146.86 135.60 149.87 135.88 152.03 C 136.11 154.35 133.16 154.11 131.76 155.00 L 130.08 155.00 C 128.61 153.91 126.82 152.74 127.43 150.64 C 129.66 149.28 132.76 149.17 134.18 146.70 C 131.75 146.41 129.11 146.83 126.92 145.46 M 129.38 150.70 C 129.44 151.46 129.54 153.00 129.59 153.76 C 130.89 153.36 132.19 152.95 133.48 152.54 C 133.50 151.74 133.53 150.12 133.55 149.32 C 132.16 149.79 130.77 150.25 129.38 150.70 Z" />
<path fill="#788991" opacity="1.00" d=" M 150.46 145.25 C 152.86 145.22 155.32 144.80 157.68 145.38 C 159.57 146.52 159.14 149.14 159.13 151.02 C 159.20 153.53 156.44 154.11 154.67 155.00 L 154.17 155.00 C 154.31 154.91 154.59 154.74 154.73 154.65 C 153.66 154.29 151.51 153.55 150.44 153.19 C 150.39 150.54 150.43 147.89 150.46 145.25 M 152.50 146.48 C 152.02 148.07 151.50 149.69 151.51 151.38 C 152.62 152.27 153.84 153.01 155.03 153.79 C 155.81 152.99 156.59 152.20 157.37 151.41 C 157.40 150.40 157.46 148.37 157.48 147.36 L 156.22 147.74 L 156.64 146.48 C 155.61 146.48 153.54 146.48 152.50 146.48 Z" />
<path fill="#788991" opacity="1.00" d=" M 162.30 145.22 C 164.33 145.38 166.36 145.45 168.39 145.64 C 167.28 146.36 165.99 146.59 164.70 146.75 C 164.45 147.27 163.94 148.32 163.68 148.85 C 163.66 150.91 163.77 153.03 162.99 154.99 C 161.92 151.84 162.49 148.47 162.30 145.22 Z" />
<path fill="#788991" opacity="1.00" d=" M 169.72 145.72 C 171.83 145.18 174.11 145.15 176.23 145.73 C 176.55 147.03 176.71 148.37 176.92 149.70 C 174.58 150.08 172.23 150.37 169.88 150.68 C 170.82 151.66 171.76 152.63 172.71 153.60 C 174.19 152.84 175.75 152.28 177.41 152.10 C 175.60 155.00 172.05 155.08 169.37 153.31 C 169.39 150.78 169.14 148.21 169.72 145.72 M 170.53 146.48 C 170.53 147.23 170.53 148.73 170.52 149.48 C 172.13 149.42 173.74 149.38 175.35 149.35 C 175.39 148.63 175.48 147.19 175.52 146.46 C 173.85 146.47 172.19 146.47 170.53 146.48 Z" />
<path fill="#788991" opacity="1.00" d=" M 180.38 145.23 C 183.05 145.31 185.81 145.29 188.29 146.43 C 186.01 146.53 183.72 146.42 181.44 146.31 L 181.45 148.16 C 182.64 148.46 183.82 148.79 185.00 149.13 C 185.71 149.30 187.13 149.64 187.84 149.81 C 187.74 151.81 186.83 153.53 185.51 155.00 L 183.82 155.00 C 181.89 154.33 180.10 153.36 178.44 152.20 C 180.84 152.48 183.18 153.06 185.52 153.64 C 185.53 152.93 185.56 151.53 185.58 150.82 C 183.81 150.47 182.05 150.06 180.30 149.64 C 180.33 148.17 180.35 146.70 180.38 145.23 Z" />
<path fill="#788991" opacity="1.00" d=" M 208.47 145.47 C 209.03 145.37 210.15 145.17 210.71 145.08 C 210.65 147.64 210.61 150.21 210.56 152.78 C 212.19 152.72 213.81 152.65 215.44 152.57 C 215.38 150.02 215.36 147.48 215.33 144.94 C 215.66 144.93 216.30 144.92 216.62 144.91 C 216.63 147.78 216.64 150.65 216.72 153.53 C 214.87 153.52 213.03 153.71 211.58 155.00 L 210.21 155.00 C 208.61 152.05 208.44 148.74 208.47 145.47 Z" />
<path fill="#788991" opacity="1.00" d=" M 237.33 145.19 C 237.89 145.24 238.99 145.33 239.55 145.38 C 238.87 148.53 240.97 152.99 237.67 154.99 C 237.35 151.73 237.43 148.45 237.33 145.19 Z" />
<path fill="#788991" opacity="1.00" d=" M 243.89 145.41 C 245.79 145.38 247.70 145.36 249.61 145.34 C 249.65 146.00 249.73 147.31 249.77 147.96 C 248.12 147.25 246.45 146.55 244.77 145.92 C 244.94 148.14 244.22 150.64 245.38 152.66 C 247.39 153.96 248.61 150.22 250.62 151.37 C 251.33 153.09 248.87 153.94 247.96 155.00 L 246.29 155.00 C 246.13 154.92 245.83 154.75 245.67 154.67 C 244.91 154.26 243.39 153.44 242.62 153.03 C 242.49 151.18 242.39 149.34 242.32 147.50 C 242.71 146.98 243.49 145.93 243.89 145.41 Z" />
<path fill="#788991" opacity="1.00" d=" M 253.46 145.23 C 255.86 145.22 258.33 144.81 260.69 145.38 C 262.59 146.54 261.76 149.17 261.93 151.01 C 262.24 153.50 259.47 154.12 257.78 155.00 L 257.22 155.00 C 257.28 154.86 257.39 154.59 257.45 154.45 C 256.45 154.13 254.44 153.48 253.44 153.16 C 253.39 150.52 253.43 147.87 253.46 145.23 M 255.52 146.48 C 255.02 148.02 254.54 149.59 254.50 151.22 C 255.58 152.20 256.82 152.98 258.03 153.79 C 258.80 153.00 259.59 152.21 260.37 151.43 C 260.40 150.41 260.45 148.38 260.48 147.36 L 259.23 147.73 L 259.64 146.48 C 258.61 146.48 256.55 146.48 255.52 146.48 Z" />
<path fill="#788991" opacity="1.00" d=" M 264.62 145.50 C 267.33 145.45 270.33 144.82 272.72 146.49 C 270.61 146.53 268.52 146.40 266.42 146.28 L 266.41 148.38 C 267.08 148.44 268.41 148.56 269.08 148.62 C 270.22 149.05 271.37 149.48 272.52 149.90 C 272.52 150.94 272.53 151.99 272.53 153.04 C 271.25 153.67 269.97 154.30 268.73 155.00 L 268.11 155.00 C 266.58 154.06 265.03 153.18 263.54 152.21 C 265.70 152.54 267.83 153.06 270.00 153.33 C 270.25 152.74 270.74 151.54 270.98 150.94 C 268.82 150.48 266.68 149.91 264.55 149.32 C 264.57 148.05 264.59 146.77 264.62 145.50 Z" />
</g>
</svg>
