<?xml version="1.0" encoding="UTF-8" ?>
<!DOCTYPE svg PUBLIC "-//W3C//DTD SVG 1.1//EN" "http://www.w3.org/Graphics/SVG/1.1/DTD/svg11.dtd">
<svg width="344pt" height="155pt" viewBox="0 0 344 155" version="1.1" xmlns="http://www.w3.org/2000/svg">
<g id="#006da6ff">
<path fill="#006da6" opacity="1.00" d=" M 171.40 0.00 L 176.11 0.00 C 182.85 1.38 187.23 9.47 183.63 15.63 C 179.95 23.10 168.01 23.24 164.12 15.89 C 160.30 9.75 164.62 1.50 171.40 0.00 Z" />
<path fill="#006da6" opacity="1.00" d=" M 137.17 63.15 C 143.55 61.26 150.94 66.22 151.12 72.98 C 151.65 79.44 145.37 85.04 139.04 84.26 C 133.01 83.92 127.97 77.92 129.10 71.89 C 129.71 67.70 133.09 64.18 137.17 63.15 Z" />
</g>
<g id="#3bb3c3ff">
<path fill="#3bb3c3" opacity="1.00" d=" M 170.46 31.67 C 176.77 29.50 184.36 34.17 184.84 40.92 C 185.60 47.06 180.07 52.81 173.96 52.68 C 168.14 52.94 162.62 47.91 162.72 42.01 C 162.60 37.32 166.02 32.99 170.46 31.67 Z" />
<path fill="#3bb3c3" opacity="1.00" d=" M 202.43 31.62 C 208.73 29.56 216.21 34.27 216.63 40.98 C 217.42 47.40 211.34 53.25 205.00 52.67 C 199.10 52.55 193.93 47.01 194.55 41.08 C 194.85 36.67 198.21 32.79 202.43 31.62 Z" />
</g>
<g id="#788991ff">
<path fill="#788991" opacity="1.00" d=" M 170.17 63.29 C 176.37 60.99 183.94 65.33 184.86 71.92 C 185.95 77.92 180.97 83.89 174.98 84.32 C 169.27 85.08 163.43 80.72 162.72 74.98 C 161.92 69.92 165.39 64.85 170.17 63.29 Z" />
</g>
<g id="#4c4948fd">
<path fill="#4c4948" opacity="1.00" d=" M 29.34 107.34 C 33.55 107.33 37.76 107.33 41.97 107.36 C 41.96 107.91 41.95 109.01 41.94 109.56 C 38.56 109.55 35.19 109.55 31.82 109.57 C 31.82 111.49 31.82 113.40 31.83 115.32 C 34.75 115.33 37.68 115.33 40.60 115.34 C 40.60 115.89 40.59 116.99 40.59 117.53 C 37.67 117.54 34.74 117.54 31.82 117.56 C 31.82 120.38 31.82 123.21 31.80 126.04 C 31.19 126.03 29.97 126.00 29.35 125.98 C 29.34 119.77 29.34 113.55 29.34 107.34 Z" />
<path fill="#4c4948" opacity="1.00" d=" M 59.35 107.31 C 59.92 107.32 61.07 107.34 61.64 107.35 C 61.63 113.57 61.64 119.79 61.63 126.01 C 61.06 126.00 59.91 126.00 59.33 125.99 C 59.34 119.77 59.30 113.54 59.35 107.31 Z" />
<path fill="#4c4948" opacity="1.00" d=" M 65.25 107.30 C 65.80 107.31 66.90 107.34 67.46 107.36 C 67.49 107.99 67.55 109.26 67.58 109.89 C 66.97 109.92 65.76 109.98 65.16 110.01 C 65.18 109.33 65.23 107.98 65.25 107.30 Z" />
<path fill="#4c4948" opacity="1.00" d=" M 107.49 107.30 C 108.76 107.34 110.02 107.38 111.29 107.43 C 112.99 112.71 114.72 117.98 116.58 123.20 C 118.32 117.90 120.17 112.63 121.99 107.35 C 122.82 107.34 124.48 107.33 125.31 107.33 C 125.36 113.56 125.31 119.79 125.32 126.02 C 124.72 126.02 123.53 126.01 122.94 126.00 C 122.94 120.88 123.01 115.77 122.86 110.65 C 121.07 115.73 119.29 120.81 117.59 125.92 C 117.01 125.95 115.85 126.01 115.27 126.04 C 113.53 120.95 111.87 115.83 110.02 110.77 C 109.76 115.86 109.92 120.95 109.87 126.04 C 109.27 126.02 108.07 125.98 107.46 125.96 C 107.52 119.74 107.48 113.52 107.49 107.30 Z" />
<path fill="#4c4948" opacity="1.00" d=" M 205.26 109.30 C 206.98 105.98 212.85 106.32 213.68 110.16 C 214.36 112.69 211.92 114.28 210.40 115.82 C 211.41 117.07 212.43 118.33 213.44 119.60 C 213.77 119.11 214.44 118.12 214.77 117.63 L 216.91 117.30 C 216.41 118.87 215.87 120.43 215.31 121.98 C 216.19 122.84 217.08 123.70 217.97 124.56 C 217.67 125.06 217.07 126.06 216.77 126.55 C 215.77 125.75 214.78 124.93 213.80 124.12 C 212.00 125.14 210.17 126.56 207.97 126.34 C 204.74 126.38 201.90 123.25 202.50 120.02 C 202.81 117.77 204.96 116.62 206.51 115.26 C 205.67 113.44 203.96 111.35 205.26 109.30 M 207.12 110.94 C 207.31 112.45 208.73 113.36 209.63 114.46 C 210.18 113.07 212.11 111.58 211.12 109.96 C 210.28 108.00 207.06 108.91 207.12 110.94 M 205.48 122.62 C 207.09 125.55 210.54 123.87 212.49 122.30 C 210.97 120.38 209.43 118.47 207.86 116.58 C 206.27 118.14 203.76 120.20 205.48 122.62 Z" />
<path fill="#4c4948" opacity="1.00" d=" M 284.32 107.34 C 284.88 107.34 286.01 107.33 286.57 107.33 C 286.59 107.98 286.64 109.28 286.66 109.92 C 286.07 109.94 284.87 109.96 284.27 109.97 C 284.28 109.32 284.31 108.00 284.32 107.34 Z" />
<path fill="#4c4948" opacity="1.00" d=" M 313.24 107.32 C 313.81 107.33 314.95 107.35 315.52 107.35 C 315.52 113.62 315.52 119.88 315.52 126.14 C 314.58 125.92 313.64 125.69 312.71 125.47 C 310.93 125.96 308.96 126.81 307.21 125.77 C 302.66 123.33 302.54 115.52 306.87 112.82 C 308.94 111.50 311.32 112.54 313.30 113.46 C 313.26 111.41 313.25 109.37 313.24 107.32 M 308.34 114.38 C 305.42 116.21 305.48 120.98 307.52 123.46 C 309.56 125.71 313.24 123.76 313.31 120.95 C 314.20 117.89 312.26 112.77 308.34 114.38 Z" />
<path fill="#4c4948" opacity="1.00" d=" M 0.00 107.32 C 0.64 107.33 1.91 107.36 2.55 107.37 C 2.56 112.85 2.56 118.32 2.58 123.80 C 5.62 123.79 8.67 123.70 11.71 123.94 C 11.71 124.43 11.70 125.41 11.70 125.90 C 7.80 126.17 3.90 126.01 0.00 125.99 L 0.00 107.32 Z" />
<path fill="#4c4948" opacity="1.00" d=" M 224.50 126.32 C 226.75 119.83 229.38 113.48 231.78 107.05 C 232.39 107.19 233.62 107.49 234.24 107.63 C 237.23 113.56 239.34 119.91 241.97 126.01 C 241.28 126.01 239.89 126.01 239.19 126.01 C 238.44 124.12 237.68 122.23 236.92 120.34 C 234.36 120.36 231.79 120.36 229.23 120.36 C 228.11 122.72 228.03 126.63 224.50 126.32 M 232.93 109.77 C 231.99 112.65 230.98 115.50 229.92 118.34 C 232.01 118.34 234.11 118.34 236.20 118.33 C 235.15 115.46 234.07 112.61 232.93 109.77 Z" />
<path fill="#4c4948" opacity="1.00" d=" M 48.93 126.17 C 41.86 124.87 42.69 112.28 50.01 112.17 C 54.41 111.62 56.67 116.01 56.85 119.77 C 53.29 119.86 49.73 119.83 46.16 119.90 C 46.98 121.37 47.24 123.54 49.08 124.15 C 52.14 125.57 53.82 121.36 56.83 121.62 C 55.71 124.90 52.43 127.15 48.93 126.17 M 46.23 117.86 C 48.99 117.97 51.76 117.97 54.52 117.89 C 53.68 116.07 52.52 113.65 50.07 114.08 C 47.91 114.10 47.16 116.34 46.23 117.86 Z" />
<path fill="#4c4948" opacity="1.00" d=" M 65.21 112.47 C 65.78 112.48 66.92 112.50 67.49 112.51 C 67.49 116.99 67.49 121.47 67.50 125.95 C 66.93 125.97 65.79 126.03 65.23 126.06 C 65.18 121.53 65.19 117.00 65.21 112.47 Z" />
<path fill="#4c4948" opacity="1.00" d=" M 73.22 113.62 C 74.88 112.77 76.71 111.63 78.64 112.40 C 84.44 114.38 84.12 124.71 78.07 126.18 C 76.38 126.63 74.77 125.61 73.17 125.21 C 73.25 127.21 73.29 129.21 73.32 131.21 C 72.73 131.20 71.57 131.19 70.99 131.18 C 71.33 124.67 70.22 118.02 71.69 111.62 C 72.07 112.12 72.84 113.12 73.22 113.62 M 75.33 114.38 C 72.11 116.50 72.01 123.09 76.03 124.38 C 82.41 125.22 81.66 111.87 75.33 114.38 Z" />
<path fill="#4c4948" opacity="1.00" d=" M 85.81 114.96 C 87.69 111.74 92.69 111.20 95.29 113.81 C 96.98 115.33 96.95 117.77 97.44 119.82 C 93.90 119.86 90.36 119.82 86.83 119.87 C 87.62 121.48 87.97 123.86 90.08 124.27 C 92.99 125.19 94.58 121.36 97.51 121.64 C 96.32 124.68 93.42 127.04 89.99 126.25 C 84.76 125.70 83.46 118.86 85.81 114.96 M 86.75 117.80 C 89.58 117.97 92.42 117.97 95.25 117.83 C 94.23 116.23 93.36 113.81 91.02 114.07 C 88.74 113.91 87.83 116.26 86.75 117.80 Z" />
<path fill="#4c4948" opacity="1.00" d=" M 132.37 112.48 C 136.58 110.86 141.31 114.51 140.86 118.98 C 141.41 122.95 138.08 126.88 133.96 126.31 C 126.91 126.16 125.99 114.45 132.37 112.48 M 133.23 114.29 C 130.05 115.55 129.96 120.03 131.32 122.66 C 133.01 125.74 138.12 124.44 138.32 120.98 C 139.38 117.78 137.18 112.90 133.23 114.29 Z" />
<path fill="#4c4948" opacity="1.00" d=" M 143.52 112.57 C 146.01 112.67 148.50 112.43 150.99 112.38 C 150.99 115.70 145.98 113.85 146.03 117.05 C 145.63 120.04 145.83 123.06 145.80 126.07 C 145.22 126.03 144.06 125.95 143.49 125.91 C 143.52 121.46 143.51 117.02 143.52 112.57 Z" />
<path fill="#4c4948" opacity="1.00" d=" M 156.04 126.12 C 148.94 124.47 150.36 111.57 157.96 112.16 C 162.12 112.02 164.01 116.24 164.22 119.79 C 160.65 119.85 157.07 119.82 153.50 119.89 C 154.27 121.95 155.32 124.66 158.04 124.47 C 160.27 123.90 161.68 121.52 164.21 121.65 C 163.00 124.99 159.61 127.24 156.04 126.12 M 153.57 117.88 C 156.33 117.97 159.09 117.97 161.86 117.89 C 160.98 116.30 160.26 113.98 158.03 114.07 C 155.60 113.71 154.53 116.16 153.57 117.88 Z" />
<path fill="#4c4948" opacity="1.00" d=" M 169.11 113.61 C 171.56 111.92 175.84 111.30 177.32 114.51 C 178.17 118.28 177.63 122.21 177.75 126.04 C 177.17 126.02 176.01 125.98 175.43 125.96 C 175.33 122.35 175.92 118.63 174.93 115.12 C 173.37 113.42 170.01 114.06 169.38 116.32 C 168.77 119.52 169.10 122.79 169.03 126.03 C 168.47 126.02 167.34 126.02 166.78 126.01 C 167.16 121.30 165.64 116.14 167.83 111.77 C 168.15 112.23 168.79 113.15 169.11 113.61 Z" />
<path fill="#4c4948" opacity="1.00" d=" M 184.36 112.58 C 188.59 110.75 193.62 114.39 193.10 119.01 C 193.68 123.06 190.14 127.00 185.96 126.29 C 179.20 125.86 178.36 114.77 184.36 112.58 M 185.32 114.35 C 181.26 116.23 181.93 124.54 186.97 124.46 C 192.91 123.91 191.59 112.16 185.32 114.35 Z" />
<path fill="#4c4948" opacity="1.00" d=" M 244.92 112.97 C 247.02 111.83 249.78 111.89 251.84 113.09 C 252.96 114.12 254.75 115.77 252.16 116.16 C 250.19 114.36 246.43 112.69 245.00 116.03 C 247.45 118.28 251.52 117.73 253.63 120.36 C 255.35 123.85 251.26 126.95 247.98 126.32 C 245.07 126.55 243.28 124.12 242.39 121.68 C 245.53 121.66 247.63 126.23 250.93 123.80 C 251.13 123.30 251.55 122.30 251.76 121.80 C 249.57 120.15 246.67 120.03 244.32 118.69 C 242.46 117.21 242.86 114.05 244.92 112.97 Z" />
<path fill="#4c4948" opacity="1.00" d=" M 260.38 112.40 C 264.55 111.03 269.00 114.64 268.57 119.00 C 269.19 123.26 265.28 127.22 260.99 126.23 C 254.33 125.33 253.99 113.97 260.38 112.40 M 261.28 114.19 C 256.84 115.49 257.12 123.94 261.96 124.43 C 268.06 124.71 267.51 112.82 261.28 114.19 Z" />
<path fill="#4c4948" opacity="1.00" d=" M 272.60 113.63 C 275.79 110.63 282.38 112.35 281.96 117.32 C 279.70 116.16 277.49 112.76 274.71 114.66 C 271.64 117.11 272.15 124.58 276.99 124.45 C 279.32 124.05 279.90 120.66 282.62 120.97 C 281.85 123.99 279.46 126.93 275.99 126.30 C 270.01 125.89 268.90 117.26 272.60 113.63 Z" />
<path fill="#4c4948" opacity="1.00" d=" M 284.32 112.48 C 284.89 112.48 286.02 112.50 286.59 112.50 C 286.61 116.99 286.60 121.48 286.63 125.97 C 286.05 125.98 284.90 125.99 284.32 126.00 C 284.27 121.49 284.28 116.98 284.32 112.48 Z" />
<path fill="#4c4948" opacity="1.00" d=" M 289.29 116.42 C 290.71 111.82 297.85 110.47 300.65 114.29 C 301.42 118.25 300.87 122.34 301.48 126.34 C 300.44 125.93 299.42 125.49 298.42 125.01 C 296.20 125.93 293.65 127.00 291.32 125.78 C 288.69 124.62 288.65 120.43 291.21 119.16 C 293.70 118.07 296.49 117.97 299.13 117.38 C 298.55 115.92 298.01 113.92 296.01 114.08 C 293.29 113.48 292.04 117.16 289.29 116.42 M 292.13 121.18 C 290.59 123.57 293.92 125.29 295.93 124.34 C 298.35 123.88 298.55 121.25 299.09 119.34 C 296.76 119.86 294.16 119.82 292.13 121.18 Z" />
<path fill="#4c4948" opacity="1.00" d=" M 322.39 112.51 C 326.60 110.84 331.42 114.46 330.97 118.97 C 331.52 122.96 328.15 126.91 324.01 126.31 C 317.03 126.09 316.14 114.58 322.39 112.51 M 323.23 114.31 C 320.03 115.79 319.97 120.59 321.79 123.17 C 323.89 125.77 328.34 124.03 328.47 120.80 C 329.46 117.59 327.14 112.84 323.23 114.31 Z" />
<path fill="#4c4948" opacity="1.00" d=" M 335.41 112.69 C 338.07 111.44 341.00 112.42 342.99 114.39 C 343.24 114.57 343.75 114.92 344.00 115.09 L 344.00 115.54 C 343.58 115.74 342.73 116.13 342.30 116.33 C 341.19 115.50 340.02 114.75 338.81 114.09 C 337.09 113.81 335.76 115.22 334.35 115.93 C 337.54 117.38 340.85 118.60 343.99 120.18 L 344.00 115.89 L 344.00 123.31 C 341.76 127.98 331.92 127.26 333.32 121.15 C 334.89 122.18 336.12 123.93 338.00 124.42 C 339.93 124.80 341.16 122.95 342.54 121.98 C 339.83 120.76 336.90 120.03 334.30 118.58 C 332.15 117.09 333.09 113.49 335.41 112.69 Z" />
<path fill="#4c4948" opacity="1.00" d=" M 15.19 123.30 C 15.80 123.34 17.03 123.40 17.64 123.44 C 17.68 124.05 17.76 125.28 17.80 125.89 C 17.10 125.93 15.70 126.02 15.00 126.06 C 15.05 125.37 15.14 123.99 15.19 123.30 Z" />
</g>
</svg>
